<svg version="1.0" width="1200" height="1200" viewBox="0 0 900 900" xmlns="http://www.w3.org/2000/svg"><path d="M14696.786 22581.767c119.369 15.421 179-155 249-232 278-307 338.648-356.328 433.648-491.328 104-149 207.099-323.924 200.099-334.924 142.531-169.573 130.007-82.858 211.222-345.068 155-322 342.344-873.656 342.344-962.656 0-74-63.298-97.321-506.298-221.321-99-27-158-49-172-63-15-15-34-64-57-147-48-173-94.015-378.992-158.015-523.992-29-67-50.018-137.44-61-147 0 0-39-92-78-175-38-82-104-226-147-320-132-290-241-486-348-628-76-100-147.633-98-454.633 46-255 119-541.336 334.328-676.336 495.328-33 39-93.664 69.359-131.664 112.359l-67 78-73-25c-144-49-389.344-64.023-567.344-75.023-141-9-431.328 13.664-677.328 48.664-254 37-367 77.657-418 110.657l-85.633 25 32.649 67.992c16 135 45.718 449 147.718 677 98 218 266.313 488.992 372.313 650.992 148 228 157.007 262 174.007 318-4.32 46-27.305 73.984 16.649 126.984-166 395-256.992 705.367-255.992 1049.367 0 180 46.976 479.267 59.976 492.267 38 38 522.954 51.015 827.954 41.015 274-9 672.359-75.656 961.359-134.656 123-25 211.68 28.281 218.68 28.281 6 0 52.32 33.336 78.32 78.336 59 98 116 150.68 254 292.68 110 113 201.342 172.805 234.342 179.805 28 6 75.963-57.759 119.963-92.759z" style="fill:#91ac9a" transform="matrix(.1 0 0 -.1 -956.586 2505.968)"/><path d="M8960.086 3746.86c-20.274-4.429-31.201-10.361-41.771-14.548-19.524-7.735-357-115-484-166-130-51-529-248-678-334l-125-73-85 2c-117 3-329 36-485 76-133 35-346 105-396 131-49 25-97 18-135-20-28-28-34-42-34-76 0-84 86-136 360-219 74-23 189-53 255-67s133-28 149-32c27-7 24-9-70-74-160-108-356-271-496-411-72-73-139-145-149-162-28-45-24-88 11-129 35-40 74-52 116-36 16 6 94 75 174 154 156 155 305 278 474 395l107 73-5-33c-39-232-31-806 13-888 20-36 62-61 102-61 31 0 48 8 77 34 43 40 44 50 24 246-16 156-15 336 3 526 14 149 40 334 47 338 24 16 174 101 288 163 150 82 169 91 385 191 122.99 51.698 116.137 52.832 229.92 96.718 68.785 25.92 133.355 48.288 193.08 69.281 90 30 134.886 44.58 170 54 40.007 9.61 97.235 27.38 120.379 33.353-19.721 77.506-88.609 204.253-114.608 213.197z" style="fill:#597d61" transform="matrix(.1 0 0 -.1 -295.945 728.134)"/><path d="M4200 8910c-867-67-1647-362-2333-883-324-246-640-569-878-897-469-645-746-1365-836-2172-23-213-23-703 0-916 82-730 315-1386 704-1981C1722 739 3216-13 4775 90c731 48 1426 277 2050 673 492 313 954 765 1282 1257 407 610 645 1270 730 2022 24 213 24 703 0 916-115 1020-536 1924-1232 2641-653 673-1506 1118-2428 1266-274 44-721 64-977 45zm745-314c354-43 644-113 955-228 895-334 1658-991 2132-1836 62-111 188-364 188-378 0-3-12 3-27 14-100 71-364 169-518 193-142 22-363 12-490-23-340-92-587-259-798-538-31-41-68-86-82-99-15-13-35-41-46-62-38-76-67-71-131 24-91 135-267 365-392 512-96 112-473 491-569 571-98 83-89 82-173 17-133-101-305-276-453-461l-66-83-55 5c-77 7-167 21-375 56-144 25-240 34-480 46-315 16-748 13-894-7-149-20-326-50-332-57-26-29-63-386-54-523 2-24 6-98 10-164 7-122 37-332 54-377 5-14 14-52 20-84 10-58 58-221 127-436 19-59 34-118 34-130 0-13-30-72-66-133-249-417-422-776-541-1120-61-177-138-466-149-557l-7-56 39-20c41-21 195-70 379-121 228-64 432-85 815-85 249-1 302 2 420 21 74 13 158 29 185 38 62 18 90 19 107 2 49-49 277-251 341-303 127-102 433-285 595-354 175-75 369-131 405-117 19 7 173 214 214 287 17 30 47 87 68 125 21 39 45 81 55 95 9 14 27 45 39 70 13 25 63 122 111 215 48 94 94 190 103 215 8 25 37 92 63 150 48 107 149 384 254 702 32 97 63 186 69 196 7 13 25 21 58 25 123 15 612 184 635 220 14 22 8 91-16 187-24 97-137 476-157 527-24 60-132 361-151 423-29 89-29 190-1 252 67 147 345 495 397 498 4 0 52 25 105 55 203 113 378 160 591 157 216-3 333-36 518-146 125-75 230-167 298-262 249-348 328-1288 174-2055C8177 2172 7067 958 5607 536c-648-187-1374-205-2034-51C2205 807 1088 1837 640 3190c-89 270-159 596-190 885-31 288-23 700 20 1006 258 1857 1736 3309 3575 3513 211 24 220 24 505 21 161-2 316-10 395-19zm188-2060c86-68 179-155 249-232 278-307 313-349 408-484 104-149 212-329 205-340 54.766-97.637 67.06-120.674 124.453-213.58L6183 5151c155-322 357-859 357-948 0-74-12-79-455-203-99-27-158-49-172-63-15-15-34-64-57-147-48-173-116-368-180-513-29-67-57-133-61-147s-39-92-78-175c-38-82-104-226-147-320-132-290-241-486-348-628-76-100-100-98-407 46-255 119-545 327-680 488-33 39-90 106-128 149l-67 78-73-25c-144-49-404-97-582-108-141-9-424 10-670 45-254 37-367 63-418 96l-38 25 7 57c16 135 119 449 221 677 98 218 237 478 343 640 148 228 168 262 185 318 14 46 13 52-9 105-166 395-246 753-245 1097 0 180 14 384 27 397 38 38 457 73 762 63 274-9 709-61 998-120 123-25 230-45 237-45 6 0 34 37 60 82 59 98 116 169 254 311 110 113 193 182 226 189 28 6 44-1 88-36z" style="fill:#597d61" transform="matrix(.1 0 0 -.1 -.976 901.858)"/></svg>