<?xml version="1.0" standalone="no"?>
<!DOCTYPE svg PUBLIC "-//W3C//DTD SVG 20010904//EN"
 "http://www.w3.org/TR/2001/REC-SVG-20010904/DTD/svg10.dtd">
<svg version="1.0" xmlns="http://www.w3.org/2000/svg"
 width="1620.000000pt" height="2160.000000pt" viewBox="0 0 1620.000000 2160.000000"
 preserveAspectRatio="xMidYMid meet">

<g transform="translate(0.000000,2160.000000) scale(0.100000,-0.100000)"
fill="#000000" stroke="none">
<path d="M4610 19431 c-19 -4 -63 -26 -97 -49 -102 -70 -198 -119 -398 -204
-104 -44 -217 -91 -250 -105 -141 -60 -202 -108 -249 -197 -19 -37 -26 -64
-26 -108 0 -110 35 -154 153 -190 169 -51 363 17 382 135 7 36 4 43 -19 64
-20 16 -40 23 -71 23 -37 0 -50 -6 -80 -36 -41 -40 -38 -58 5 -42 38 13 60 5
60 -22 0 -63 -59 -79 -140 -37 l-45 22 1 80 c0 73 16 143 44 195 5 9 33 27 62
40 372 160 393 167 396 143 2 -12 -9 -85 -23 -160 -33 -170 -43 -257 -51 -443
-8 -185 5 -303 56 -490 50 -183 71 -238 165 -416 41 -79 75 -154 75 -167 0
-13 7 -48 16 -77 13 -44 30 -68 90 -129 41 -41 83 -86 94 -101 27 -38 152
-327 188 -435 42 -123 74 -283 62 -306 -6 -10 -10 -40 -10 -67 0 -37 7 -59 30
-94 26 -40 31 -58 40 -164 32 -350 -95 -698 -365 -1007 -290 -332 -585 -539
-790 -554 -213 -16 -397 124 -413 313 -4 57 -2 67 34 134 75 140 202 220 348
220 119 0 192 -43 231 -137 20 -48 19 -68 -7 -119 -17 -34 -31 -47 -65 -60
-50 -19 -123 -15 -178 12 -54 25 -132 100 -151 144 -11 25 -25 40 -35 40 -29
0 -31 -16 -9 -63 26 -55 93 -126 151 -160 124 -73 329 -75 387 -4 18 21 17
132 -2 185 -57 160 -192 243 -375 229 -300 -23 -533 -308 -457 -558 23 -74 47
-113 100 -158 77 -67 159 -103 243 -109 108 -7 313 29 418 73 133 56 230 104
300 150 44 28 105 67 135 86 30 19 91 64 135 100 317 260 484 563 566 1026 17
96 20 146 17 266 -4 122 -2 149 10 160 23 18 158 188 246 307 42 58 90 120
106 138 31 34 105 68 180 82 50 10 63 4 203 -88 83 -55 106 -91 164 -266 30
-89 58 -152 87 -196 35 -52 48 -84 65 -161 26 -123 31 -134 84 -212 34 -49 47
-80 56 -131 6 -37 17 -79 23 -94 6 -15 14 -44 17 -64 4 -28 9 -35 19 -29 19
11 28 87 13 105 -7 8 -14 34 -17 58 -2 25 -30 94 -64 163 -54 108 -61 130 -74
227 -9 70 -21 117 -34 135 -55 81 -94 171 -128 294 -20 74 -40 141 -45 150
-11 22 -147 112 -235 155 l-71 35 -122 -30 c-67 -17 -130 -31 -139 -31 -11 0
-38 -30 -66 -72 -27 -40 -86 -118 -131 -173 -45 -55 -95 -120 -112 -145 -39
-57 -157 -180 -172 -180 -23 0 -61 49 -61 77 0 36 22 109 49 161 12 23 21 46
21 52 0 6 8 23 18 38 74 107 146 232 182 315 36 80 42 102 34 124 -10 30 -10
30 -124 80 -47 21 -121 59 -165 86 -77 46 -223 99 -311 113 -35 5 -44 3 -57
-16 -20 -29 -46 -23 -74 19 -25 37 -29 81 -12 130 36 104 233 87 564 -47 88
-35 186 -75 218 -88 165 -66 372 -97 539 -82 212 19 367 -14 538 -116 59 -36
91 -47 150 -56 228 -34 386 -76 424 -111 19 -17 18 -19 -23 -91 -23 -40 -86
-123 -139 -185 -156 -180 -182 -213 -182 -240 0 -13 4 -21 10 -18 6 3 10 12
10 20 0 7 17 28 38 47 21 18 62 63 92 100 29 37 61 70 71 73 35 11 149 147
185 221 l36 73 -21 35 c-28 44 -94 70 -234 91 -230 35 -308 60 -439 139 -119
72 -173 81 -553 96 -133 5 -255 15 -290 23 -33 8 -184 65 -335 127 -281 114
-363 139 -460 140 -79 0 -95 7 -115 48 -53 112 -78 207 -117 437 -28 169 -10
564 33 714 55 194 94 315 137 420 42 106 44 116 31 140 -27 49 -130 79 -209
62z m428 -2262 c38 -34 61 -67 87 -124 22 -49 49 -90 71 -109 30 -26 37 -39
38 -72 0 -27 -6 -49 -22 -68 -20 -26 -22 -27 -28 -10 -33 92 -152 336 -203
413 -22 34 -2 24 57 -30z m210 -116 c71 -30 80 -46 62 -112 -12 -46 -25 -53
-34 -18 -3 12 -19 31 -36 42 -24 16 -70 89 -70 111 0 8 17 3 78 -23z"/>
<path d="M6565 16943 c-44 -14 -86 -28 -94 -30 -9 -2 16 -31 65 -78 60 -57 84
-74 99 -69 53 15 67 15 90 0 29 -19 33 -51 8 -65 -14 -7 -15 -13 -6 -34 11
-24 7 -30 -73 -106 -51 -49 -84 -88 -84 -101 0 -34 22 -23 87 47 34 37 65 64
69 60 4 -4 -3 -18 -15 -31 -32 -34 -23 -50 14 -28 36 22 67 73 48 79 -8 3 -2
14 16 29 44 37 181 271 181 309 0 13 -8 15 -47 9 -35 -4 -64 0 -110 15 -81 27
-149 25 -248 -6z m257 -60 l57 -15 -14 -29 c-22 -41 -31 -43 -80 -20 -28 13
-65 21 -98 21 -51 0 -97 19 -97 41 0 5 10 9 23 10 12 0 38 6 57 13 24 9 44 10
65 4 17 -6 56 -17 87 -25z"/>
<path d="M3745 16810 c-49 -10 -137 -44 -171 -66 -23 -15 -28 -15 -82 4 -194
69 -461 81 -492 22 -29 -54 1 -167 85 -325 l53 -100 -19 -37 c-16 -31 -59
-184 -59 -211 0 -15 151 -60 280 -83 41 -8 76 -18 78 -23 2 -6 19 -30 38 -55
29 -38 40 -46 68 -46 49 0 101 25 183 86 40 30 74 54 77 54 10 0 16 -56 10
-97 -5 -33 -19 -60 -53 -102 -76 -91 -138 -193 -166 -268 -21 -59 -25 -88 -25
-177 0 -148 20 -176 84 -120 l29 26 -13 81 c-21 134 12 235 120 370 51 63 150
147 175 147 6 0 20 -18 30 -40 48 -107 253 -122 294 -22 12 28 11 35 -9 68
-27 42 -87 73 -142 74 -21 0 -38 4 -38 9 0 17 41 59 92 95 68 46 140 58 187
30 17 -10 31 -22 31 -26 0 -11 62 -10 80 2 12 7 12 12 0 34 -17 33 -72 49
-167 48 -59 0 -84 -5 -136 -29 -75 -36 -129 -81 -158 -132 -15 -27 -34 -44
-69 -58 l-47 -20 -7 83 c-3 45 -8 89 -11 96 -3 8 8 32 25 53 41 51 90 156 129
274 30 91 31 96 14 113 -16 16 -23 16 -68 4 -28 -7 -56 -15 -64 -17 -20 -5
-30 45 -32 164 -1 70 -5 102 -16 112 -16 16 -54 18 -118 5z m26 -142 c7 -29
17 -93 24 -143 l11 -90 66 3 67 2 -9 -31 c-45 -156 -110 -257 -229 -356 -119
-99 -171 -112 -171 -43 0 32 -7 36 -86 45 -65 7 -105 16 -208 46 l-68 21 4 53
c3 30 16 76 33 108 l28 56 -47 79 c-59 101 -93 185 -97 242 l-4 45 111 3 c112
3 228 -16 335 -52 41 -14 43 -14 79 15 39 32 77 47 122 48 23 1 27 -4 39 -51z
m354 -762 c37 -16 62 -54 52 -80 -5 -11 -20 -16 -51 -16 -52 0 -66 16 -66 74
0 41 11 44 65 22z"/>
<path d="M6380 16747 c-35 -17 -36 -55 -6 -174 14 -54 28 -126 32 -159 3 -32
16 -88 29 -124 12 -36 30 -101 39 -145 22 -108 39 -159 102 -303 67 -151 86
-249 59 -306 -32 -67 2 -61 36 7 18 34 21 53 16 111 -4 61 -13 86 -66 191 -58
114 -62 128 -87 275 -15 85 -33 178 -41 205 -8 28 -18 70 -24 95 -5 25 -17 77
-25 115 -9 39 -22 87 -30 109 -8 21 -13 41 -10 44 3 2 19 -1 36 -8 23 -9 29
-17 24 -29 -20 -45 3 -89 57 -111 40 -17 44 -9 20 35 -13 25 -18 47 -14 71 6
39 -5 56 -59 90 -43 27 -53 29 -88 11z"/>
<path d="M6021 15766 c-108 -146 -210 -323 -262 -452 -17 -44 -34 -83 -37 -88
-3 -5 -23 44 -44 109 -39 121 -99 255 -123 275 -27 22 -244 -37 -312 -85 -39
-27 -31 -80 23 -156 44 -63 277 -524 290 -574 8 -33 40 -55 79 -55 36 0 131
47 140 69 4 9 8 59 10 112 6 154 60 344 146 513 43 85 140 240 196 315 46 61
43 71 -17 71 -48 0 -50 -1 -89 -54z"/>
<path d="M6300 15629 c-25 -4 -68 -8 -96 -8 -54 -1 -68 -10 -77 -51 -48 -215
-57 -272 -57 -380 1 -253 40 -349 170 -416 26 -13 59 -18 125 -18 104 -1 121
8 187 95 l37 50 6 -38 c9 -54 53 -158 90 -212 117 -170 100 -340 -73 -731 -79
-177 -217 -336 -399 -456 -157 -105 -301 -142 -448 -115 -116 21 -177 94 -206
245 -16 86 -1 224 36 321 36 96 125 242 186 306 125 129 310 215 394 183 18
-7 50 -63 41 -72 -3 -3 -14 2 -23 10 -28 24 -59 30 -102 18 -48 -13 -71 -42
-71 -91 0 -71 79 -99 162 -56 53 27 58 23 58 -39 0 -35 -28 -75 -61 -86 -11
-4 -11 -8 -3 -18 16 -16 48 -5 90 32 30 27 34 35 34 82 0 32 -6 61 -17 75 -11
16 -17 45 -17 85 l0 61 70 37 c38 21 84 38 102 38 30 0 32 -2 32 -37 0 -21 11
-74 23 -118 l23 -80 56 3 c49 3 56 1 61 -18 8 -33 58 -24 68 12 12 45 -10 63
-76 63 l-57 0 -14 40 c-14 41 -19 229 -8 273 5 17 14 22 38 22 26 0 34 5 43
31 7 18 10 36 7 40 -9 14 -64 10 -70 -5 -3 -8 -18 -16 -34 -20 -32 -6 -45 -36
-57 -128 -6 -47 -6 -48 -42 -48 -23 0 -70 -16 -122 -41 -77 -37 -87 -40 -120
-30 -106 32 -268 -7 -381 -91 -24 -18 -70 -51 -103 -73 -81 -54 -218 -187
-269 -260 -112 -161 -146 -358 -83 -485 75 -152 196 -228 408 -255 65 -8 216
11 307 40 122 38 353 193 471 315 68 70 220 298 276 415 46 95 104 255 124
342 10 39 10 73 2 140 -9 76 -18 103 -66 196 l-54 107 35 0 c24 0 46 9 66 25
45 38 51 33 46 -40 -7 -75 4 -91 74 -106 54 -13 170 -84 238 -147 44 -40 51
-52 45 -71 -12 -39 -102 -118 -196 -171 -89 -52 -104 -71 -76 -99 14 -14 13
-179 -2 -194 -6 -6 -34 4 -75 26 -43 23 -74 33 -91 30 -27 -6 -35 -33 -9 -33
14 0 85 -36 161 -82 18 -11 45 -18 60 -16 24 2 31 11 46 53 24 70 19 174 -11
214 -12 17 -22 34 -22 38 1 4 40 31 87 58 64 37 104 70 156 127 82 91 82 104
11 172 -69 66 -185 122 -316 150 l-28 6 0 93 c0 54 -5 98 -11 104 -23 23 -95
-14 -165 -86 l-31 -32 -32 71 c-50 107 -61 162 -68 315 -3 77 -10 146 -16 153
-11 14 -56 16 -91 2 -25 -9 -26 -12 -26 -97 0 -49 -4 -115 -10 -147 -11 -72
-94 -244 -143 -301 -31 -35 -36 -38 -51 -25 -46 37 -76 146 -76 268 1 149 41
386 81 474 35 75 22 86 -81 67z m-130 -1337 l23 -19 -22 -22 c-28 -28 -65 -25
-69 7 -8 53 25 69 68 34z"/>
<path d="M7315 15462 c-136 -12 -314 -111 -401 -222 -33 -42 -35 -49 -32 -101
6 -79 27 -109 78 -109 33 0 40 3 40 19 0 25 72 78 125 93 64 17 353 3 445 -22
117 -31 153 -43 175 -56 11 -6 38 -17 60 -24 22 -7 51 -21 64 -31 13 -11 28
-19 34 -19 21 0 146 -92 226 -166 205 -191 323 -390 320 -542 -2 -90 -29 -174
-102 -315 -52 -102 -71 -128 -133 -185 -119 -110 -287 -166 -539 -178 -102 -6
-113 -4 -155 18 -33 17 -50 35 -65 66 -15 33 -27 44 -55 52 -46 13 -221 13
-256 0 -26 -10 -27 -13 -21 -69 3 -39 14 -72 32 -100 40 -64 147 -164 209
-195 123 -62 352 -40 586 56 232 96 343 183 440 343 64 106 103 200 140 340
27 99 30 125 30 260 0 143 -2 156 -31 240 -43 124 -87 217 -144 305 -56 86
-237 271 -340 349 -159 120 -361 187 -580 193 -66 2 -133 2 -150 0z"/>
<path d="M9799 14476 c-54 -19 -95 -51 -113 -90 -21 -44 -21 -139 -1 -156 8
-7 15 -11 16 -9 0 2 1 33 2 69 2 79 20 111 80 141 60 31 174 38 204 13 12 -11
24 -29 28 -41 6 -21 3 -23 -37 -23 -54 0 -118 -17 -140 -38 -11 -8 -18 -29
-18 -48 0 -27 6 -36 30 -49 66 -34 142 -11 180 57 29 52 61 49 103 -12 22 -31
22 -101 1 -146 -16 -34 -17 -34 -41 -19 -39 26 -106 46 -116 36 -5 -5 -12 -44
-17 -87 -10 -102 -58 -348 -68 -352 -42 -14 -210 -166 -243 -219 -12 -18 -24
-33 -28 -33 -4 0 -11 62 -14 138 -7 129 -22 225 -45 282 -14 37 -59 77 -98 90
-49 17 -64 1 -64 -66 0 -61 23 -94 65 -94 17 0 30 -9 42 -32 15 -28 18 -58 18
-188 0 -130 -4 -177 -28 -290 -15 -74 -32 -171 -38 -215 -6 -44 -13 -90 -15
-102 l-4 -22 -44 25 c-38 21 -48 23 -94 14 -154 -29 -221 -173 -209 -450 7
-155 34 -289 75 -370 79 -159 276 -161 356 -3 l16 33 36 -40 c55 -60 138 -104
196 -103 57 1 87 18 113 66 l18 35 -42 51 c-63 75 -85 87 -169 94 -144 12
-147 20 -147 472 0 344 4 389 46 475 10 21 19 43 19 47 1 23 154 194 215 240
l70 54 12 -67 c27 -146 123 -190 179 -82 11 22 22 28 48 28 44 0 193 50 253
86 60 35 103 80 103 107 0 34 -49 154 -84 205 -44 63 -112 115 -142 108 -18
-5 -34 6 -78 52 -38 39 -51 58 -40 60 23 5 34 45 34 119 0 63 -2 67 -39 104
-25 25 -48 39 -65 39 -20 0 -26 5 -26 21 0 27 -18 60 -44 81 -26 22 -152 24
-207 4z m211 -146 c0 -18 -47 -59 -74 -66 -31 -7 -86 13 -86 32 0 25 43 44
102 44 34 0 58 -4 58 -10z m124 -340 c35 -33 56 -60 58 -77 3 -26 5 -27 58
-25 64 3 67 1 114 -58 28 -36 36 -54 36 -88 0 -40 -3 -44 -47 -73 -55 -34
-152 -66 -230 -75 -45 -6 -56 -11 -67 -33 -22 -41 -54 -67 -68 -53 -22 22 -26
106 -12 227 26 212 53 305 89 305 7 0 38 -23 69 -50z m-692 -1265 c31 -271 29
-374 -9 -431 -34 -52 -146 -72 -192 -33 -47 39 -87 263 -62 351 15 52 56 113
94 142 25 18 105 36 147 32 11 -1 17 -19 22 -61z"/>
<path d="M6746 13839 c-7 -24 -24 -227 -21 -246 2 -10 6 -29 9 -43 3 -14 43
-64 90 -112 105 -108 119 -143 134 -325 10 -110 9 -147 -3 -220 -48 -275 -140
-595 -194 -668 -16 -22 -51 -56 -78 -75 -57 -41 -69 -54 -89 -99 -14 -30 -13
-50 1 -194 18 -173 37 -241 83 -296 40 -48 64 -38 86 37 10 31 28 82 41 112
26 63 90 252 130 385 15 50 30 101 35 115 85 247 136 546 134 790 -3 262 -47
488 -130 657 -47 94 -124 183 -161 183 -10 0 -28 3 -40 6 -15 4 -24 1 -27 -7z"/>
<path d="M7879 13293 c-13 -32 -6 -194 9 -234 15 -37 48 -44 68 -13 21 31 80
33 118 3 38 -30 35 -47 -29 -185 -66 -144 -80 -265 -50 -440 19 -110 52 -179
116 -245 57 -58 117 -88 177 -89 37 0 44 3 53 28 12 31 4 197 -11 237 -14 36
-33 40 -95 21 -84 -27 -105 -21 -137 44 -49 98 -36 182 58 375 30 60 59 135
64 166 20 111 -21 255 -91 314 -29 24 -121 45 -198 45 -36 0 -43 -4 -52 -27z"/>
<path d="M4045 13189 c-178 -23 -411 -125 -499 -218 -28 -29 -32 -30 -86 -24
-63 6 -120 -13 -187 -64 -91 -70 -171 -230 -158 -318 7 -50 45 -101 68 -92 15
6 14 11 -9 44 -22 32 -25 46 -21 89 11 105 103 236 200 283 26 12 63 21 92 21
45 0 47 -1 33 -17 -27 -31 -47 -79 -54 -130 -5 -43 -3 -53 17 -77 60 -69 185
0 203 114 8 48 -3 73 -44 96 -35 21 -24 44 22 44 23 0 46 -17 111 -82 67 -68
96 -107 155 -213 127 -227 155 -344 156 -650 0 -227 -9 -291 -70 -472 -32 -96
-184 -413 -207 -432 -15 -12 -41 -4 -205 62 -243 98 -295 111 -452 111 -248 0
-398 -51 -525 -178 -39 -39 -81 -93 -93 -119 -52 -111 -68 -285 -37 -404 47
-179 202 -324 443 -413 53 -19 75 -22 140 -17 114 8 180 25 193 49 16 29 -11
51 -90 72 -144 38 -293 135 -361 234 -62 91 -75 146 -74 312 l0 145 38 68 c59
106 104 130 261 142 95 8 193 -14 301 -67 266 -130 374 -190 374 -207 0 -33
-77 -136 -165 -219 -92 -88 -104 -115 -58 -133 62 -23 152 34 258 163 42 51
85 104 96 117 23 27 25 27 178 -18 175 -51 283 -65 455 -58 255 10 453 63 609
163 89 57 127 92 182 169 138 194 198 421 199 755 1 178 0 190 -31 306 -32
120 -94 287 -138 374 -42 83 -141 225 -216 310 -102 115 -205 201 -302 250
-45 23 -87 46 -93 51 -20 16 -146 60 -216 74 -76 17 -278 18 -393 4z m250
-138 c93 -26 175 -63 217 -98 18 -16 51 -42 73 -58 22 -16 89 -74 148 -130
163 -151 274 -328 406 -645 100 -243 109 -452 30 -725 -31 -107 -46 -142 -106
-244 -113 -192 -184 -240 -409 -276 -166 -27 -311 -15 -489 38 -227 69 -267
100 -215 167 11 14 20 29 20 33 0 5 29 73 65 152 79 174 162 421 206 610 29
129 32 154 32 320 1 215 -11 267 -101 458 -69 144 -128 231 -210 310 l-61 57
32 17 c69 35 259 42 362 14z m-721 -193 c22 -31 20 -69 -6 -108 -47 -68 -91
-66 -96 6 -2 31 4 48 28 82 36 47 52 52 74 20z"/>
<path d="M10844 12921 c-31 -19 -104 -105 -104 -122 0 -24 -20 -5 -30 29 -17
51 -24 56 -45 31 -13 -14 -19 -34 -18 -62 20 -604 28 -667 78 -667 32 0 35 15
35 150 0 138 14 187 83 293 23 36 49 79 58 95 33 60 119 47 119 -17 0 -14 -15
-66 -32 -116 -29 -79 -33 -102 -33 -190 0 -85 3 -106 23 -142 29 -55 57 -73
125 -80 69 -7 119 9 153 50 25 29 26 36 21 102 -6 87 -22 125 -53 125 -12 0
-24 -3 -26 -7 -1 -5 -20 -23 -41 -40 -29 -25 -47 -33 -77 -33 -22 0 -40 4 -40
8 0 5 16 56 36 113 35 100 36 108 30 197 -7 107 -21 145 -77 219 -59 79 -124
101 -185 64z"/>
<path d="M10327 12897 c-21 -15 -43 -69 -52 -126 -6 -38 -9 -42 -17 -25 -16
30 -80 94 -110 110 -39 20 -91 17 -122 -7 -35 -27 -102 -168 -117 -247 -15
-82 -7 -251 17 -322 31 -92 91 -171 153 -202 79 -40 125 -35 200 23 21 17 25
17 44 4 31 -22 109 -19 150 5 40 24 83 82 97 131 10 32 -2 167 -16 190 -10 17
-34 9 -43 -13 -44 -115 -73 -151 -126 -161 -64 -11 -79 20 -66 135 7 66 15 87
55 150 25 40 55 92 67 115 l20 43 -22 72 c-23 79 -29 89 -69 118 -22 16 -30
17 -43 7z m-149 -281 c55 -29 58 -39 56 -201 l-2 -149 -28 -24 c-24 -19 -38
-22 -77 -19 -104 9 -165 128 -136 265 9 46 20 66 54 100 47 46 83 54 133 28z"/>
<path d="M11565 12891 c-48 -22 -154 -131 -182 -186 -44 -87 -58 -147 -57
-245 1 -137 41 -225 129 -283 83 -54 198 -55 305 -2 75 38 83 53 75 134 -9 91
-22 103 -72 63 -72 -56 -123 -76 -193 -77 -52 0 -71 5 -96 22 -62 44 -48 122
46 257 63 91 94 111 161 103 68 -8 84 6 75 69 -7 57 -44 117 -89 144 -39 24
-51 24 -102 1z"/>
<path d="M12060 12871 c-78 -24 -146 -88 -175 -165 -15 -38 -17 -66 -13 -154
10 -193 82 -337 197 -390 47 -22 71 -26 146 -27 81 0 95 3 137 28 67 39 78 59
78 140 0 84 -21 110 -94 121 -44 7 -53 5 -90 -22 -39 -29 -44 -41 -30 -81 3
-10 13 -7 38 13 19 14 47 26 62 26 26 0 26 -1 10 -18 -33 -38 -157 -55 -235
-32 -49 14 -98 65 -121 127 -11 30 -20 56 -20 58 0 10 31 4 125 -25 54 -16
119 -30 145 -30 43 0 52 5 105 53 l59 53 4 67 c10 149 -29 221 -133 251 -55
17 -152 20 -195 7z m201 -167 c41 -24 84 -101 68 -121 -18 -20 -65 -16 -174
18 -151 46 -168 57 -142 93 29 39 187 46 248 10z"/>
<path d="M7407 12848 c-95 -18 -197 -91 -250 -180 -45 -75 -61 -153 -55 -270
6 -115 33 -190 89 -248 141 -145 424 -128 566 34 71 80 88 128 88 241 0 92 -2
104 -29 150 -16 28 -38 68 -49 90 -70 142 -207 212 -360 183z m188 -233 c67
-36 128 -89 150 -129 16 -30 17 -37 5 -67 -17 -42 -94 -125 -135 -147 -97 -53
-200 -72 -274 -52 -89 24 -161 94 -161 156 0 48 44 174 60 174 4 0 18 -24 30
-52 25 -59 47 -88 65 -88 7 0 28 33 48 73 41 87 103 157 139 157 14 0 47 -11
73 -25z"/>
<path d="M8710 12819 c-75 -6 -115 -25 -164 -75 -61 -63 -71 -95 -70 -224 0
-162 33 -264 111 -351 63 -69 102 -84 223 -84 96 0 109 2 151 27 61 36 77 70
69 147 -3 33 -11 66 -17 72 -13 13 -17 11 -86 -44 -49 -39 -137 -55 -212 -38
-44 10 -66 22 -94 51 -34 35 -75 125 -65 141 5 8 37 1 158 -35 48 -14 102 -26
118 -26 35 0 121 68 145 115 18 34 20 141 4 201 -24 90 -127 137 -271 123z
m145 -168 c30 -13 46 -30 64 -66 23 -47 23 -49 5 -62 -21 -16 -92 -9 -135 13
-14 7 -56 21 -93 30 -37 9 -73 23 -81 30 -19 20 -7 51 24 63 46 17 172 12 216
-8z"/>
<path d="M12217 12103 c-4 -3 -7 -18 -7 -33 0 -65 142 -169 215 -157 19 3 49
15 65 27 16 12 34 18 40 15 35 -22 83 41 78 102 -5 54 -27 62 -72 27 -20 -16
-39 -38 -42 -48 -28 -87 -172 -66 -238 34 -28 43 -29 44 -39 33z"/>
<path d="M5950 11662 c-110 -23 -315 -126 -378 -191 -74 -76 -87 -110 -87
-231 0 -89 4 -112 23 -151 36 -73 124 -164 190 -196 53 -26 65 -28 172 -27
120 1 206 19 266 54 l32 18 20 -28 c12 -16 47 -41 79 -57 53 -26 67 -28 159
-27 191 3 347 68 410 171 l22 35 6 -29 c17 -78 71 -118 200 -148 123 -28 309
-14 425 32 61 24 65 25 98 9 18 -9 74 -54 122 -102 109 -104 152 -183 176
-318 25 -149 22 -189 -29 -292 -50 -103 -97 -151 -251 -264 -187 -137 -461
-268 -637 -304 -42 -9 -110 -16 -150 -16 -229 1 -435 123 -441 263 l-2 42 85
8 c89 8 194 41 252 81 40 27 96 109 104 154 9 47 -12 81 -64 103 -110 47 -292
2 -453 -114 l-82 -58 5 49 c7 77 47 135 113 166 46 23 55 31 61 60 3 19 3 39
-1 45 -8 13 -55 15 -55 2 0 -5 -26 -24 -57 -41 -32 -18 -69 -41 -82 -51 -30
-24 -61 -10 -61 27 0 32 -25 80 -45 88 -33 12 -125 7 -131 -8 -3 -8 13 -42 36
-75 34 -51 45 -60 63 -56 14 4 32 -3 52 -19 l30 -24 -18 -65 c-21 -82 -22
-119 0 -164 13 -29 14 -41 5 -67 -15 -42 -15 -153 0 -197 26 -78 146 -185 256
-228 199 -79 553 -64 851 35 133 44 361 155 471 230 318 215 397 315 485 618
30 99 5 218 -67 325 -44 65 -150 166 -263 247 -157 114 -178 149 -155 254 33
147 100 245 189 275 78 26 114 74 76 105 -31 25 -201 8 -273 -29 -38 -19 -38
-19 -97 1 -79 26 -246 28 -365 3 -97 -20 -167 -52 -258 -119 -52 -39 -69 -58
-94 -112 -27 -58 -31 -78 -36 -189 -4 -103 -7 -123 -18 -114 -9 8 -40 9 -96 4
-84 -7 -118 -20 -188 -71 -25 -18 -42 -23 -60 -19 -63 16 -133 126 -134 210 0
93 20 140 91 208 91 87 107 111 93 138 -11 19 -18 21 -86 17 -73 -5 -76 -4
-89 21 -18 35 -51 64 -105 92 -61 31 -192 35 -310 11z m74 -131 c21 -5 52 -22
68 -38 l30 -28 -5 -105 c-5 -103 -34 -213 -68 -258 -38 -51 -96 -102 -115
-102 -27 0 -94 48 -130 94 -87 109 -84 291 6 377 61 58 134 78 214 60z m1393
-41 c26 -6 54 -14 62 -19 24 -16 21 -64 -11 -141 -26 -65 -31 -89 -33 -176 -2
-117 -13 -139 -82 -180 -37 -21 -55 -25 -92 -22 -58 6 -98 25 -124 60 -18 24
-20 44 -21 160 -1 108 2 139 17 167 9 19 17 39 17 46 0 17 106 86 155 101 51
16 54 16 112 4z m-731 -1325 c11 -26 -6 -82 -31 -107 -19 -19 -46 -28 -125
-42 -56 -10 -104 -15 -107 -12 -3 3 17 32 45 64 43 49 63 63 119 85 81 30 92
32 99 12z"/>
<path d="M8151 11570 c-103 -15 -132 -48 -99 -113 53 -105 60 -150 63 -382 l2
-220 29 -5 c44 -9 165 -3 198 9 19 8 26 16 22 26 -3 8 -1 27 4 41 6 14 11 91
11 170 l1 145 34 52 c19 29 48 60 66 69 30 17 33 17 62 0 51 -30 73 -73 81
-156 7 -84 -7 -151 -50 -232 -14 -26 -25 -53 -25 -60 0 -13 54 -30 80 -25 8 2
44 6 80 10 l64 6 47 89 c34 64 50 109 58 160 6 39 15 88 21 108 12 42 73 98
107 98 29 0 83 -46 99 -87 27 -64 10 -186 -36 -253 -52 -76 -23 -116 77 -105
85 10 119 23 147 56 58 69 98 203 86 289 -14 99 -42 144 -125 199 -39 25 -45
26 -185 26 -114 0 -157 -4 -199 -18 l-54 -19 -53 27 c-70 36 -176 43 -299 21
-49 -9 -99 -18 -110 -22 -17 -4 -23 2 -33 30 -25 69 -59 82 -171 66z"/>
<path d="M11131 11555 c-82 -15 -123 -30 -164 -57 -27 -19 -27 -19 -53 1 -47
37 -148 21 -221 -35 -39 -30 -40 -33 -12 -63 12 -13 30 -45 40 -72 25 -65 42
-259 33 -384 -8 -133 -3 -137 144 -121 74 8 105 25 123 68 15 37 17 154 5 288
-7 86 -6 101 14 152 26 70 58 98 112 98 49 0 76 -27 109 -111 32 -81 55 -93
155 -84 66 7 77 11 99 37 29 34 31 52 9 103 -18 45 -115 145 -164 170 -45 23
-138 28 -229 10z"/>
<path d="M9925 11493 c-16 -2 -91 -18 -165 -34 -114 -25 -145 -36 -198 -71
-34 -22 -71 -52 -80 -67 -29 -42 -52 -128 -52 -196 0 -53 4 -68 29 -102 51
-70 123 -115 208 -131 70 -12 245 8 297 35 l40 20 46 -47 c61 -63 109 -75 240
-60 129 15 185 42 274 133 39 40 78 88 87 107 43 91 43 89 31 115 -11 23 -15
24 -85 20 -102 -5 -138 -25 -183 -99 -45 -75 -92 -126 -116 -126 -10 0 -28 19
-44 46 -22 37 -28 63 -32 125 -6 97 5 117 85 155 161 76 150 149 -19 126 -75
-11 -83 -11 -102 7 -52 47 -134 61 -261 44z m2 -134 c17 -6 34 -17 37 -25 15
-40 -49 -196 -113 -273 -23 -28 -32 -33 -55 -27 -15 4 -44 22 -64 41 -36 33
-37 35 -37 107 0 89 16 131 61 159 63 38 92 41 171 18z"/>
<path d="M11745 10821 c-11 -5 -81 -11 -155 -15 -165 -8 -366 -29 -610 -61
-252 -34 -238 -32 -393 -70 -102 -26 -147 -42 -170 -61 -44 -37 -67 -74 -67
-107 0 -28 1 -29 41 -22 23 4 60 15 83 25 45 20 120 26 431 36 417 12 604 8
801 -20 54 -8 106 -14 114 -15 41 -2 130 -20 150 -31 19 -10 22 -18 17 -56 -2
-25 -7 -47 -10 -50 -3 -3 -18 1 -34 9 -27 14 -103 30 -360 77 -61 11 -169 24
-240 29 -137 10 -726 13 -755 5 -11 -3 -18 -15 -18 -30 0 -14 -6 -24 -14 -24
-26 0 -37 -64 -13 -73 8 -3 35 -1 61 4 59 11 647 4 776 -10 156 -16 492 -84
527 -106 38 -25 37 -40 -1 -103 -20 -33 -36 -69 -36 -80 0 -13 24 -35 79 -71
128 -84 228 -193 359 -392 77 -117 108 -174 167 -309 28 -63 56 -125 63 -137
18 -32 15 -40 -19 -70 -30 -27 -89 -129 -89 -155 -1 -38 -15 -40 -106 -14 -95
28 -131 48 -153 88 -13 23 -13 29 2 52 20 30 49 33 95 10 26 -13 44 -13 109
-4 132 18 175 95 77 136 -96 40 -327 20 -434 -37 -42 -22 -73 -30 -130 -34
-80 -5 -145 -28 -155 -53 -3 -9 -11 -66 -16 -127 -19 -203 -89 -292 -144 -185
-32 62 -9 210 46 300 17 27 27 55 23 61 -10 17 -164 4 -208 -16 -18 -9 -44
-27 -57 -41 -12 -13 -25 -24 -29 -24 -3 0 -12 16 -19 35 -23 64 -103 105 -244
126 -72 10 -114 8 -237 -12 -65 -11 -165 -41 -204 -61 -12 -6 -38 -24 -58 -40
l-36 -28 -23 40 c-26 46 -93 95 -153 111 -40 11 -221 7 -277 -7 l-26 -6 -6
104 c-3 57 -15 139 -27 183 -29 112 -95 239 -145 282 -40 34 -41 34 -110 28
-75 -7 -193 -57 -202 -85 -3 -8 -16 -37 -30 -63 -24 -46 -24 -52 -12 -95 19
-68 89 -134 174 -162 92 -31 95 -35 97 -143 1 -51 2 -108 3 -127 1 -19 -4 -57
-11 -84 -8 -27 -11 -53 -8 -58 8 -13 -14 -101 -43 -175 -22 -55 -29 -64 -59
-72 -84 -23 -121 -83 -70 -116 26 -17 22 -17 214 -15 73 1 136 -1 140 -5 4 -4
-43 -55 -103 -113 -113 -109 -138 -125 -305 -192 -99 -40 -236 -9 -424 96
-125 70 -200 135 -274 238 -87 119 -109 167 -162 346 -27 92 -90 254 -113 291
-6 10 -9 20 -7 22 3 2 43 28 90 58 192 120 363 257 493 395 148 157 211 245
267 379 83 196 109 241 169 298 118 113 246 150 371 107 148 -50 280 -8 280
90 0 60 -16 65 -210 64 -292 -2 -458 -47 -590 -160 -78 -66 -162 -164 -190
-221 -13 -26 -43 -81 -67 -120 -24 -40 -43 -75 -43 -79 0 -3 -13 -25 -30 -49
-16 -24 -30 -47 -30 -50 0 -8 -106 -149 -149 -199 -103 -120 -208 -211 -368
-322 l-76 -52 -51 38 c-28 21 -61 43 -73 49 -19 10 -23 20 -23 62 0 28 -7 106
-14 173 -8 66 -19 159 -24 206 -7 65 -18 106 -50 175 -51 112 -68 117 -98 29
-21 -62 -41 -96 -101 -170 -37 -46 -40 -67 -17 -139 19 -62 42 -189 42 -231
l1 -31 -102 -7 c-249 -17 -413 -75 -530 -189 -54 -52 -66 -70 -75 -112 -43
-202 167 -300 538 -251 58 8 110 15 115 16 6 1 13 2 17 1 8 -1 -37 -172 -57
-216 -8 -16 -25 -57 -38 -91 -82 -205 -341 -535 -464 -590 -29 -13 -53 -28
-53 -34 0 -35 167 -57 263 -35 70 16 128 62 200 159 64 85 117 163 117 170 0
3 19 34 43 68 59 88 77 120 125 224 53 115 99 246 117 337 23 113 25 117 38
117 16 0 36 -46 91 -205 76 -222 87 -248 129 -320 114 -196 290 -337 548 -438
102 -41 193 -51 323 -38 61 7 138 19 171 27 85 22 307 133 390 195 108 81 235
199 241 224 4 17 19 28 57 40 73 23 134 60 189 112 l46 45 15 -28 c44 -84 150
-134 284 -134 120 0 207 16 273 48 63 31 179 142 199 190 19 46 31 40 31 -17
0 -32 10 -72 27 -111 21 -49 34 -66 70 -87 62 -36 105 -43 202 -32 147 16 212
61 281 191 18 33 35 57 38 56 56 -30 150 -70 188 -79 142 -34 186 -102 150
-235 -24 -90 -81 -152 -205 -223 -124 -71 -265 -128 -396 -161 -80 -20 -106
-22 -230 -17 -77 3 -171 14 -210 23 -38 9 -98 22 -132 28 -184 37 -113 149
122 194 28 6 44 16 55 35 57 102 -180 93 -400 -16 -55 -27 -117 -88 -126 -122
-17 -68 25 -139 106 -180 44 -22 192 -64 283 -80 153 -26 382 -22 560 9 241
44 597 205 717 326 30 30 59 75 85 133 40 87 40 88 70 81 17 -4 68 -8 115 -9
l85 -1 24 -50 c66 -138 135 -388 172 -622 10 -70 26 -172 35 -227 17 -108 15
-223 -7 -360 -19 -120 -18 -209 3 -213 19 -4 43 68 64 193 16 92 18 332 5 402
-5 26 -15 93 -21 148 -21 177 -71 416 -121 576 -53 168 -53 169 -40 169 5 0
15 -15 21 -34 11 -35 26 -46 60 -46 14 0 22 -11 29 -37 19 -72 62 -268 71
-325 6 -32 15 -84 21 -115 6 -32 15 -85 20 -118 9 -66 3 -698 -7 -803 l-7 -64
-54 5 c-116 12 -507 138 -709 228 -22 10 -65 27 -95 39 -116 45 -277 131 -310
164 -197 202 -226 221 -320 210 -41 -5 -67 -14 -89 -33 l-31 -26 -1 -340 c-1
-500 -37 -781 -153 -1173 -75 -257 -133 -405 -276 -700 -106 -222 -231 -508
-270 -622 -26 -73 -44 -112 -92 -192 -39 -67 -40 -68 -83 -68 -58 0 -108 13
-304 77 -140 46 -335 132 -377 165 -6 5 -60 34 -120 64 -59 31 -128 70 -153
87 -25 17 -88 60 -140 95 -281 191 -693 562 -832 750 -221 299 -213 288 -238
354 -27 74 -50 93 -110 93 -36 0 -55 -6 -72 -21 -60 -56 -375 -186 -567 -235
-145 -37 -155 -38 -168 -21 -20 25 -119 171 -180 266 -108 168 -162 276 -217
436 -93 267 -121 457 -131 870 -6 236 -18 410 -31 444 -10 26 -28 13 -36 -25
-25 -115 -43 -495 -29 -629 23 -228 48 -401 73 -510 32 -143 120 -405 149
-445 12 -17 89 -199 85 -202 -7 -7 -26 25 -96 162 -71 139 -84 170 -141 335
-98 283 -136 576 -125 955 6 220 17 356 41 515 19 129 23 128 -235 100 -105
-12 -223 -3 -212 16 16 29 137 147 193 189 14 11 88 67 163 125 194 149 343
250 367 250 11 0 32 -9 46 -20 34 -27 45 -25 69 8 36 48 36 70 0 109 -29 32
-36 35 -67 29 -49 -9 -148 -71 -334 -211 -287 -215 -441 -351 -499 -443 -23
-36 -28 -40 -53 -33 -25 7 -28 12 -27 47 1 68 82 178 261 355 169 167 207 198
378 305 61 38 133 85 160 106 68 51 189 201 272 336 27 44 30 82 7 82 -29 0
-168 -61 -204 -89 -19 -15 -69 -49 -110 -76 -212 -137 -253 -167 -350 -249
-58 -50 -143 -129 -190 -176 -90 -90 -313 -368 -350 -435 -12 -22 -30 -53 -40
-70 -50 -81 -71 -127 -105 -235 -20 -63 -13 -76 53 -95 62 -19 329 -26 437
-13 33 5 89 11 124 14 l63 7 -8 -44 c-11 -63 -8 -536 5 -717 13 -188 53 -448
86 -562 93 -322 112 -378 199 -575 37 -84 60 -126 130 -235 68 -108 150 -222
189 -264 32 -34 21 -36 267 38 258 77 425 149 557 243 34 23 65 43 70 43 4 0
32 -44 61 -98 29 -54 79 -130 110 -169 31 -40 87 -114 124 -165 190 -265 519
-550 928 -802 172 -107 258 -142 620 -250 139 -42 458 -106 560 -112 l95 -6
50 58 c75 88 135 162 135 168 0 2 20 34 45 71 25 36 69 107 98 158 30 50 93
160 142 242 87 149 142 255 267 515 77 159 89 187 118 260 37 93 120 350 120
372 0 11 7 46 15 77 48 190 84 675 62 848 -6 45 -8 85 -5 88 3 3 38 -15 78
-40 40 -24 89 -50 109 -56 20 -6 59 -21 86 -34 141 -64 251 -101 385 -130 36
-8 85 -19 110 -24 59 -13 187 -37 275 -51 39 -6 139 -10 225 -8 l155 3 7 45
c38 232 57 677 39 895 -6 77 -16 212 -21 300 -5 88 -18 215 -30 282 -17 102
-19 126 -8 145 7 13 16 57 20 98 11 118 22 150 80 235 29 44 74 119 98 168 25
48 53 90 62 93 51 16 99 -82 106 -216 4 -88 -5 -142 -49 -302 -15 -57 -20 -91
-14 -97 10 -10 184 2 217 14 23 9 47 64 60 136 6 33 14 59 18 57 4 -2 26 -26
49 -55 49 -62 140 -127 219 -155 50 -17 73 -19 187 -14 172 7 265 40 406 142
l46 34 7 -47 c3 -25 6 -72 6 -105 0 -54 2 -59 26 -68 14 -6 47 -10 74 -10 38
0 54 5 69 22 26 27 50 109 58 194 4 39 11 68 19 71 38 14 193 -85 309 -197
127 -124 255 -188 351 -177 55 6 137 58 175 110 34 47 37 72 10 87 -27 14 -50
3 -57 -29 -11 -46 -28 -51 -102 -29 -135 41 -155 56 -364 274 l-58 60 49 51
c41 43 51 60 60 110 7 32 14 68 16 79 7 32 -50 99 -110 129 -28 14 -77 28
-112 31 l-62 7 44 62 c84 117 135 281 120 381 -9 63 -64 120 -125 129 -95 14
-262 -24 -299 -69 -36 -43 -78 -169 -80 -241 -8 -346 -15 -490 -24 -557 l-12
-83 -35 -6 c-50 -8 -91 -33 -119 -72 -45 -61 -194 -156 -246 -157 -59 0 -206
106 -240 172 -8 17 -15 32 -15 34 0 2 45 3 99 3 183 -1 268 35 319 133 27 52
24 90 -10 133 -32 41 -83 57 -198 62 -193 9 -357 -35 -416 -112 -14 -19 -31
-35 -36 -35 -5 0 -20 24 -33 53 -77 166 -166 254 -235 232 -25 -8 -25 3 -1
115 22 101 26 214 10 290 -14 68 -60 170 -105 231 -50 68 -88 83 -196 76 -151
-10 -238 -65 -297 -191 -29 -62 -70 -243 -72 -320 -1 -22 -4 -52 -8 -66 -6
-23 -11 -17 -51 55 -93 171 -318 493 -409 588 -25 26 -78 73 -117 103 -40 30
-75 62 -78 71 -4 10 -6 89 -5 178 6 335 7 314 -24 341 -28 24 -32 24 -210 23
-100 0 -191 -4 -202 -8z m355 -706 c7 -8 17 -15 22 -15 16 0 117 -101 149
-150 16 -25 61 -88 100 -140 159 -214 395 -609 372 -623 -5 -3 -26 -7 -48 -9
l-40 -3 -41 80 c-23 44 -60 109 -83 145 -23 36 -51 85 -63 110 -33 71 -124
205 -218 322 -25 31 -67 86 -95 123 -27 37 -64 79 -82 92 -36 28 -42 56 -15
72 23 14 27 13 42 -4z m1134 -214 c15 -16 24 -49 56 -196 5 -24 5 -77 -1 -130
-27 -247 -54 -326 -156 -450 l-32 -38 -5 34 c-2 19 -5 43 -5 54 0 11 -7 54
-15 95 -26 126 -31 293 -12 384 18 88 65 192 107 237 32 34 40 35 63 10z
m-3482 -370 c16 -42 28 -79 28 -83 0 -3 -20 2 -45 11 -48 18 -75 55 -90 119
-6 28 -3 38 16 58 l23 25 21 -27 c11 -15 32 -62 47 -103z m-1670 -87 c19 -6
25 -59 18 -160 -5 -63 -7 -69 -35 -85 -16 -10 -68 -25 -114 -35 -107 -21 -185
-15 -218 19 l-24 24 21 54 c34 87 129 172 211 188 41 9 100 6 141 -5z m6939
-244 c46 -25 66 -148 34 -210 -16 -32 -61 -60 -94 -60 -69 0 -65 194 5 258 29
25 29 25 55 12z m-4802 -100 c93 -53 121 -214 50 -295 -44 -50 -102 -69 -199
-63 -44 3 -82 7 -85 10 -3 3 3 23 14 45 22 41 61 182 61 217 0 29 26 64 64 87
39 24 50 24 95 -1z m3997 -21 c35 -33 31 -63 -13 -96 -43 -33 -114 -37 -157
-10 -35 23 -37 86 -3 118 19 18 30 20 85 16 48 -4 69 -10 88 -28z m-3208 -8
c90 -46 97 -97 30 -219 -38 -67 -49 -79 -85 -91 -37 -13 -45 -13 -82 3 -58 27
-80 56 -97 126 -11 47 -12 71 -4 95 28 86 151 130 238 86z m1825 -61 c10 -30
23 -89 28 -130 5 -41 12 -86 15 -100 3 -14 -1 -33 -9 -44 -13 -18 -15 -17 -27
20 -7 21 -38 90 -69 153 l-55 113 28 25 c44 38 68 28 89 -37z m-129 -189 c40
-92 44 -113 21 -104 -19 7 -75 114 -75 142 0 21 11 54 16 49 1 -2 19 -41 38
-87z m-1148 -2258 c-3 -38 -8 -100 -11 -140 -3 -39 -12 -97 -21 -130 -9 -32
-20 -83 -25 -113 -6 -29 -17 -77 -26 -105 -8 -27 -29 -93 -45 -145 -48 -156
-57 -178 -145 -355 -111 -225 -222 -421 -278 -490 -16 -20 -16 -19 -9 5 4 14
17 48 30 75 12 28 31 73 42 100 11 28 54 118 96 201 42 84 76 154 76 158 0 3
12 31 26 62 46 101 120 310 173 489 42 142 61 217 86 340 9 44 18 88 21 98 11
36 15 15 10 -50z"/>
  <path d="M9484 9209 c-17 -5 -43 -20 -58 -34 -25 -23 -27 -30 -21 -78 7 -61
-16 -252 -39 -316 -31 -85 -57 -93 -80 -24 -28 83 -17 194 29 283 26 51 9 61
-87 50 -108 -13 -133 -28 -170 -106 -28 -60 -30 -71 -26 -152 5 -100 26 -151
82 -199 50 -45 95 -57 190 -50 187 13 263 78 331 282 22 66 27 100 28 196 2
146 -6 159 -92 158 -31 0 -70 -5 -87 -10z"/>
<path d="M9767 8095 c-11 -10 -23 -12 -45 -5 -36 10 -64 4 -109 -23 -38 -22
-41 -44 -12 -78 73 -85 289 -480 379 -694 61 -143 136 -378 150 -465 27 -179
17 -468 -20 -571 -27 -74 -26 -89 5 -89 27 0 74 60 94 120 69 213 86 321 85
525 -2 364 -68 694 -187 922 -53 104 -237 344 -274 359 -41 18 -48 17 -66 -1z"/>

</g>
</svg>
