<?xml version="1.0" standalone="no"?>
<!DOCTYPE svg PUBLIC "-//W3C//DTD SVG 20010904//EN"
 "http://www.w3.org/TR/2001/REC-SVG-20010904/DTD/svg10.dtd">
<svg version="1.0" xmlns="http://www.w3.org/2000/svg"
 width="700.000000pt" height="700.000000pt" viewBox="0 0 700.000000 700.000000"
 preserveAspectRatio="xMidYMid meet">
<metadata>
Created by potrace 1.14, written by Peter Selinger 2001-2017
</metadata>
<g transform="translate(0.000000,700.000000) scale(0.100000,-0.100000)"
fill="#000000" stroke="none">
<path d="M1413 6358 c-54 -58 -248 -353 -344 -525 -316 -565 -487 -1080 -539
-1618 -7 -81 -5 -433 3 -470 2 -11 8 -47 12 -80 22 -188 93 -419 189 -620 113
-235 241 -420 409 -588 204 -205 417 -337 656 -407 l74 -22 -441 -441 -441
-442 5 -44 c3 -24 12 -54 21 -67 15 -23 67 -44 110 -44 16 0 148 126 462 439
l439 440 37 -107 c86 -250 205 -436 397 -624 348 -340 776 -544 1273 -605 122
-15 591 -7 648 12 7 2 30 6 52 9 22 3 51 8 65 11 14 3 41 8 60 11 130 23 394
98 580 167 378 139 826 377 1140 606 121 88 132 110 96 185 -28 58 -189 258
-328 409 -377 410 -703 650 -1041 767 -43 15 -79 30 -80 33 -1 4 33 44 75 90
507 549 842 1270 967 2082 40 261 46 348 46 695 0 351 -5 369 -107 392 -94 21
-625 16 -808 -8 -708 -91 -1344 -317 -1820 -646 -30 -21 -63 -44 -74 -51 -36
-23 -241 -181 -275 -212 -19 -16 -68 -61 -109 -98 -41 -37 -77 -66 -79 -63 -3
3 -18 43 -34 90 -126 377 -490 825 -1003 1238 -188 152 -234 168 -293 106z"/>
</g>
</svg>
