<?xml version="1.0" standalone="no"?>
<!DOCTYPE svg PUBLIC "-//W3C//DTD SVG 20010904//EN"
 "http://www.w3.org/TR/2001/REC-SVG-20010904/DTD/svg10.dtd">
<svg version="1.0" xmlns="http://www.w3.org/2000/svg"
 width="700.000000pt" height="700.000000pt" viewBox="0 0 700.000000 700.000000"
 preserveAspectRatio="xMidYMid meet">
<metadata>
Created by potrace 1.14, written by Peter Selinger 2001-2017
</metadata>
<g transform="translate(0.000000,700.000000) scale(0.100000,-0.100000)"
fill="#000000" stroke="none">
<path d="M3105 6900 c-77 -10 -167 -23 -200 -30 -33 -6 -73 -14 -90 -16 -55
-9 -289 -72 -385 -104 -118 -39 -270 -100 -376 -151 -44 -21 -84 -39 -89 -39
-5 0 -16 -6 -24 -14 -9 -7 -45 -28 -81 -47 -36 -18 -76 -41 -90 -49 -68 -44
-267 -176 -280 -186 -178 -141 -250 -203 -376 -329 -269 -269 -448 -509 -626
-845 -129 -243 -276 -650 -314 -870 -3 -14 -7 -32 -9 -40 -2 -8 -7 -31 -10
-50 -3 -19 -8 -46 -10 -60 -11 -52 -13 -67 -24 -155 -18 -151 -21 -212 -21
-430 1 -265 9 -386 35 -535 3 -14 7 -41 10 -60 5 -29 17 -86 50 -230 23 -106
91 -319 142 -450 41 -104 162 -357 209 -437 178 -301 374 -555 591 -763 126
-121 165 -155 353 -303 158 -125 493 -311 735 -410 163 -67 414 -146 548 -172
159 -31 212 -40 302 -50 28 -4 64 -9 80 -12 17 -3 145 -6 285 -8 228 -3 334 2
465 20 22 3 60 8 85 11 25 3 79 12 120 20 508 101 979 307 1378 603 70 52 129
97 132 101 3 3 41 38 85 76 135 116 259 245 419 434 162 191 369 537 484 810
47 112 127 339 148 425 9 33 20 78 25 100 6 22 12 49 15 60 2 11 6 31 9 45 21
96 33 162 39 205 3 22 11 78 18 125 20 139 16 708 -6 825 -2 11 -7 45 -11 75
-26 201 -138 621 -210 785 -7 17 -27 64 -45 105 -80 186 -220 435 -344 610
-33 47 -63 87 -66 90 -3 3 -31 37 -62 76 -189 237 -460 490 -713 666 -436 302
-999 518 -1495 573 -30 3 -73 8 -95 11 -22 3 -159 7 -305 8 -210 3 -294 0
-405 -14z m695 -224 c53 -6 169 -23 220 -32 14 -2 41 -7 60 -10 114 -18 503
-130 535 -154 6 -4 21 -11 35 -15 39 -11 133 -54 265 -120 500 -254 944 -664
1254 -1160 62 -100 192 -348 206 -395 7 -24 7 -24 -11 -9 -52 46 -310 141
-414 153 -65 8 -208 9 -253 2 -18 -3 -49 -8 -71 -11 -54 -7 -179 -50 -261 -90
-184 -89 -314 -208 -503 -461 -18 -24 -36 -44 -40 -44 -15 0 -32 19 -117 135
-107 146 -224 294 -279 354 -117 128 -439 440 -466 451 -28 11 -34 10 -73 -16
-57 -39 -268 -250 -351 -351 l-67 -82 -42 5 c-56 6 -79 9 -232 34 -180 30
-202 32 -410 45 -122 8 -602 8 -670 0 -132 -15 -299 -46 -306 -57 -17 -27 -34
-195 -34 -343 0 -300 24 -450 130 -790 26 -82 49 -160 51 -173 5 -26 -10 -57
-116 -242 -95 -165 -203 -381 -259 -515 -23 -55 -46 -109 -52 -120 -5 -11 -11
-29 -13 -40 -3 -11 -12 -37 -20 -58 -25 -58 -102 -333 -117 -416 -12 -69 -11
-74 6 -87 35 -26 378 -127 470 -139 22 -3 50 -7 63 -9 87 -18 537 -26 663 -13
61 6 131 18 189 32 88 22 102 19 155 -32 184 -178 358 -304 577 -418 127 -65
301 -130 379 -141 l46 -6 56 74 c63 84 109 158 189 303 190 341 275 539 440
1025 32 96 65 184 73 196 9 14 28 23 59 27 111 16 475 149 478 176 0 9 2 23 2
31 2 22 -22 137 -39 191 -9 25 -17 54 -19 65 -9 39 -85 274 -136 414 -29 80
-58 168 -65 195 -19 68 -13 142 15 197 30 61 168 247 228 307 72 73 306 187
422 206 25 4 54 9 65 12 29 6 194 5 235 -1 166 -28 314 -102 443 -224 103 -98
155 -200 207 -407 28 -109 34 -145 46 -260 3 -33 9 -87 14 -120 8 -67 6 -451
-4 -559 -7 -83 -14 -142 -21 -176 -2 -14 -7 -41 -9 -60 -3 -19 -8 -47 -11 -62
-3 -16 -7 -38 -9 -50 -8 -43 -47 -203 -56 -233 -99 -309 -143 -417 -248 -620
-103 -196 -291 -473 -422 -620 -55 -61 -251 -257 -305 -305 -99 -86 -400 -310
-418 -310 -4 0 -31 -16 -61 -35 -202 -129 -614 -295 -871 -351 -263 -58 -446
-78 -715 -78 -215 0 -398 13 -532 39 -13 3 -39 8 -58 11 -146 25 -408 103
-585 174 -255 102 -562 281 -770 449 -38 31 -81 65 -95 76 -59 47 -341 336
-399 410 -34 44 -70 89 -79 100 -24 29 -182 264 -182 270 0 3 -11 22 -23 43
-125 197 -265 538 -332 802 -14 58 -30 121 -35 140 -5 19 -12 51 -15 70 -3 19
-10 62 -16 95 -30 167 -38 288 -34 550 2 149 6 288 9 310 3 22 8 60 11 85 4
25 9 61 11 80 24 179 113 507 184 680 17 41 36 89 43 105 29 74 159 320 222
420 200 321 455 603 757 838 85 66 263 188 333 227 96 55 227 121 305 155 47
21 103 45 125 55 84 36 375 125 476 145 301 60 417 71 694 69 132 -1 265 -4
295 -8z"/>
</g>
</svg>
